<svg width="20" height="20" viewBox="0 0 20 20" fill="none" xmlns="http://www.w3.org/2000/svg">
<path fill-rule="evenodd" clip-rule="evenodd" d="M4.73076 4.69995H1.74999C1.52371 4.69995 1.30801 4.79578 1.15633 4.96369C1.00465 5.13161 0.931174 5.3559 0.954103 5.58101L1.96298 15.4863C2.21251 17.9363 4.27563 19.7999 6.73827 19.7999H13.2617C15.7243 19.7999 17.7875 17.9363 18.037 15.4863L19.0459 5.58101C19.0688 5.3559 18.9953 5.13161 18.8436 4.96369C18.692 4.79578 18.4763 4.69995 18.25 4.69995H15.2692C14.9802 2.13636 12.6938 0.199951 9.99998 0.199951C7.30612 0.199951 5.01972 2.13636 4.73076 4.69995ZM6.34736 4.69995H13.6526C13.3722 3.08511 11.8781 1.79995 9.99998 1.79995C8.12182 1.79995 6.62774 3.08511 6.34736 4.69995ZM2.63561 6.29995L3.55474 15.3242C3.7211 16.9575 5.09651 18.2 6.73827 18.2H13.2617C14.9035 18.2 16.2789 16.9575 16.4452 15.3242L17.3644 6.29995H2.63561Z" fill="white"/>
<path fill-rule="evenodd" clip-rule="evenodd" d="M4.73076 4.69995H1.74999C1.52371 4.69995 1.30801 4.79578 1.15633 4.96369C1.00465 5.13161 0.931174 5.3559 0.954103 5.58101L1.96298 15.4863C2.21251 17.9363 4.27563 19.7999 6.73827 19.7999H13.2617C15.7243 19.7999 17.7875 17.9363 18.037 15.4863L19.0459 5.58101C19.0688 5.3559 18.9953 5.13161 18.8436 4.96369C18.692 4.79578 18.4763 4.69995 18.25 4.69995H15.2692C14.9802 2.13636 12.6938 0.199951 9.99998 0.199951C7.30612 0.199951 5.01972 2.13636 4.73076 4.69995ZM6.34736 4.69995H13.6526C13.3722 3.08511 11.8781 1.79995 9.99998 1.79995C8.12182 1.79995 6.62774 3.08511 6.34736 4.69995ZM2.63561 6.29995L3.55474 15.3242C3.7211 16.9575 5.09651 18.2 6.73827 18.2H13.2617C14.9035 18.2 16.2789 16.9575 16.4452 15.3242L17.3644 6.29995H2.63561Z" fill="black" fill-opacity="0.72"/>
</svg>
