<svg width="76" height="50" viewBox="0 0 76 50" fill="none" xmlns="http://www.w3.org/2000/svg">
<path fill-rule="evenodd" clip-rule="evenodd" d="M75.9997 49.8411H73.6685V37.5H75.9997V49.8411ZM6.90874 49.8412H0V38.2408H2.37382V47.8137H6.90874V49.8412ZM13.6447 43.4016C13.364 42.9697 12.9144 42.7537 12.2961 42.7537C11.6778 42.7537 11.2298 42.9697 10.9519 43.4016C10.6738 43.8336 10.535 44.4976 10.535 45.3936C10.535 46.2901 10.6766 46.9583 10.9604 47.3991C11.2438 47.84 11.6922 48.0602 12.3048 48.0602C12.9173 48.0602 13.364 47.84 13.6447 47.3991C13.9255 46.9583 14.0658 46.2901 14.0658 45.3936C14.0658 44.4976 13.9255 43.8336 13.6447 43.4016ZM12.3207 40.8057C13.5628 40.788 14.5669 41.2008 15.3328 42.0441C16.0983 42.8875 16.4698 44.0026 16.4472 45.3895C16.4472 46.8351 16.0798 47.965 15.3454 48.7788C14.6108 49.5928 13.5884 49.9996 12.2783 49.9996C11.0361 50.0115 10.0333 49.5941 9.27062 48.7479C8.50754 47.9017 8.13471 46.7821 8.15174 45.3895C8.15174 43.9437 8.51458 42.8184 9.24081 42.0133C9.97241 41.2081 10.9991 40.8057 12.3207 40.8057ZM20.4121 49.8414H22.8112L26.0699 40.9736H23.628L21.986 46.0246C21.776 46.7415 21.6596 47.3468 21.6372 47.8403H21.5944C21.5548 47.2882 21.4384 46.6826 21.2457 46.0246L19.5951 40.9736H17.1534L20.4121 49.8414ZM32.0234 43.0184C31.7343 42.6891 31.3412 42.5247 30.8451 42.5247C30.3486 42.5247 29.9588 42.6876 29.6752 43.0138C29.3915 43.3401 29.2298 43.8029 29.1901 44.4023H32.4659C32.4601 43.8086 32.3128 43.3476 32.0234 43.0184ZM34.1767 49.3741C33.3712 49.7914 32.3673 49.9997 31.1648 49.9997C29.7865 49.9997 28.7102 49.6077 27.9361 48.8232C27.1617 48.0386 26.7746 46.9117 26.7746 45.4424C26.7746 43.9734 27.1319 42.8331 27.8466 42.0222C28.5725 41.2113 29.5525 40.8058 30.7862 40.8058C32.0198 40.8058 32.9741 41.1641 33.6491 41.8811C34.324 42.5982 34.6617 43.5823 34.6617 44.8342V46.0067H29.1399C29.1625 46.7 29.3596 47.2393 29.7312 47.6243C30.1027 48.0092 30.6174 48.2016 31.2755 48.2016C32.2566 48.2016 33.2237 47.9693 34.1767 47.5054V49.3741ZM37.082 49.8412H43.9907V47.8137H39.4558V38.2408H37.082V49.8412ZM50.7267 43.4016C50.446 42.9697 49.9966 42.7537 49.3782 42.7537C48.7599 42.7537 48.3118 42.9697 48.0339 43.4016C47.7558 43.8336 47.617 44.4976 47.617 45.3936C47.617 46.2901 47.7588 46.9583 48.0424 47.3991C48.3258 47.84 48.7742 48.0602 49.3868 48.0602C49.9993 48.0602 50.446 47.84 50.7267 47.3991C51.0075 46.9583 51.1478 46.2901 51.1478 45.3936C51.1478 44.4976 51.0075 43.8336 50.7267 43.4016ZM49.4029 40.8057C50.6448 40.788 51.6489 41.2008 52.4148 42.0441C53.1805 42.8875 53.552 44.0026 53.5294 45.3895C53.5294 46.8351 53.1619 47.965 52.4274 48.7788C51.6928 49.5928 50.6706 49.9996 49.3603 49.9996C48.1181 50.0115 47.1153 49.5941 46.3526 48.7479C45.5897 47.9017 45.2167 46.7821 45.2337 45.3895C45.2337 43.9437 45.5968 42.8184 46.3228 42.0133C47.0546 41.2081 48.0811 40.8057 49.4029 40.8057ZM55.2776 45.4514C55.2776 48.4837 56.6107 49.9999 59.2766 49.9999C59.8779 49.9999 60.3699 49.9513 60.753 49.8545C61.1356 49.7574 61.5114 49.5856 61.88 49.3387V47.2673C61.1256 47.7844 60.3259 48.0429 59.481 48.0429C58.267 48.0429 57.6601 47.1614 57.6601 45.3986C57.6601 43.6354 58.267 42.7541 59.481 42.7541C59.9516 42.7541 60.6095 42.9304 61.4548 43.2829L62.1438 41.4052C61.3441 41.0055 60.4564 40.8058 59.481 40.8058C58.125 40.8058 57.0857 41.204 56.3626 42.0001C55.6395 42.7965 55.2776 43.9469 55.2776 45.4514ZM68.9479 46.4649V45.7336L68.046 45.7599C67.3596 45.7835 66.852 45.9114 66.523 46.1433C66.1938 46.3756 66.0295 46.7296 66.0295 47.2055C66.0295 47.8875 66.4065 48.2279 67.1611 48.2279C67.7057 48.2279 68.1395 48.068 68.4629 47.7477C68.7861 47.4278 68.9479 46.9999 68.9479 46.4649ZM71.2704 49.8413H69.6369L69.1857 48.6338H69.1263C68.729 49.1507 68.3236 49.5078 67.9097 49.7048C67.4954 49.9014 66.9537 50 66.2845 50C65.4564 50 64.8068 49.7546 64.3361 49.264C63.8653 48.7734 63.6298 48.0726 63.6298 47.1615C63.6298 46.2507 63.9433 45.5688 64.5703 45.1166C65.1967 44.6637 66.1595 44.4144 67.4587 44.367L68.9476 44.3229V43.9353C68.9476 43.0359 68.5022 42.5865 67.6116 42.5865C66.9369 42.5865 66.1342 42.7981 65.2039 43.2212L64.4298 41.5903C65.4111 41.0556 66.4929 40.7882 67.6757 40.7882C68.8584 40.7882 69.7529 41.0512 70.3599 41.5771C70.9668 42.1032 71.2704 42.8892 71.2704 43.9353V49.8413Z" fill="#B8238E"/>
<path d="M31.2473 19.2772C29.631 26.3209 23.1724 31.25 15.8539 31.25H0V15.6047C0 8.38257 4.99463 2.00889 12.1324 0.413853C23.7418 -2.18046 33.8761 7.82061 31.2473 19.2772Z" fill="#B8238E"/>
<path fill-rule="evenodd" clip-rule="evenodd" d="M13.2738 18.1511V11.5905H6.26831V18.1511V25.0644H13.2738H19.9219V18.1511H13.2738Z" fill="white"/>
</svg>
